<?xml version="1.0" standalone="no"?>
<!DOCTYPE svg PUBLIC "-//W3C//DTD SVG 20010904//EN"
 "http://www.w3.org/TR/2001/REC-SVG-20010904/DTD/svg10.dtd">
<svg version="1.0" xmlns="http://www.w3.org/2000/svg"
 width="206.000000pt" height="206.000000pt" viewBox="0 0 206.000000 206.000000"
 preserveAspectRatio="xMidYMid meet">
<metadata>
Created by potrace 1.14, written by Peter Selinger 2001-2017
</metadata>
<g transform="translate(0.000000,206.000000) scale(0.100000,-0.100000)"
fill="#000000" stroke="none">
<path d="M1018 1754 c-2 -1 -24 -5 -50 -8 -106 -14 -270 -86 -338 -147 -72
-65 -63 -61 -106 -43 -78 33 -176 13 -235 -47 -60 -61 -60 -65 -60 -479 0
-360 1 -381 20 -418 23 -45 68 -86 118 -107 39 -16 138 -14 156 4 18 18 42 13
73 -15 86 -75 195 -132 314 -163 90 -23 263 -22 351 2 92 26 215 88 269 135
116 101 202 228 241 357 33 105 32 323 -1 410 -6 17 -11 30 -10 30 1 0 -4 14
-10 30 -22 60 -63 131 -106 184 -24 29 -41 57 -38 62 3 5 -2 6 -10 3 -9 -3
-16 -2 -16 3 0 11 -121 102 -175 130 -69 37 -211 73 -301 76 -46 2 -85 3 -86
1z"/>
</g>
</svg>
